<mxfile host="app.diagrams.net" modified="2023-12-20T19:03:11.219Z" agent="Mozilla/5.0 (Windows NT 10.0; Win64; x64) AppleWebKit/537.36 (KHTML, like Gecko) Chrome/120.0.0.0 Safari/537.36" etag="flKUPZ1lfe3dr-vWy5xg" version="22.1.11" type="google">
  <diagram name="第 1 页" id="3-2gK9YEdZM3IiV0OXFe">
    <mxGraphModel grid="0" page="0" gridSize="10" guides="1" tooltips="1" connect="1" arrows="1" fold="1" pageScale="1" pageWidth="827" pageHeight="1169" math="0" shadow="0">
      <root>
        <mxCell id="0" />
        <mxCell id="1" parent="0" />
        <mxCell id="wkYyvQzpivgb2VtziBDL-13" value="" style="edgeStyle=none;curved=1;rounded=0;orthogonalLoop=1;jettySize=auto;html=1;fontSize=12;startSize=8;endSize=8;" edge="1" parent="1" source="wkYyvQzpivgb2VtziBDL-1" target="wkYyvQzpivgb2VtziBDL-3">
          <mxGeometry relative="1" as="geometry" />
        </mxCell>
        <mxCell id="wkYyvQzpivgb2VtziBDL-1" value="開始" style="rounded=1;whiteSpace=wrap;html=1;fontSize=16;" vertex="1" parent="1">
          <mxGeometry x="25" y="29" width="115" height="36" as="geometry" />
        </mxCell>
        <mxCell id="wkYyvQzpivgb2VtziBDL-2" value="查詢新用戶名/姓名" style="rounded=0;whiteSpace=wrap;html=1;fontSize=16;" vertex="1" parent="1">
          <mxGeometry x="6.25" y="118" width="152.5" height="63" as="geometry" />
        </mxCell>
        <mxCell id="wkYyvQzpivgb2VtziBDL-10" value="" style="edgeStyle=none;curved=1;rounded=0;orthogonalLoop=1;jettySize=auto;html=1;fontSize=12;startSize=8;endSize=8;" edge="1" parent="1" source="wkYyvQzpivgb2VtziBDL-3" target="wkYyvQzpivgb2VtziBDL-5">
          <mxGeometry relative="1" as="geometry" />
        </mxCell>
        <mxCell id="wkYyvQzpivgb2VtziBDL-3" value="查詢用戶表" style="shape=parallelogram;perimeter=parallelogramPerimeter;whiteSpace=wrap;html=1;fixedSize=1;fontSize=16;rotation=0;" vertex="1" parent="1">
          <mxGeometry x="6.25" y="224" width="152.5" height="63" as="geometry" />
        </mxCell>
        <mxCell id="wkYyvQzpivgb2VtziBDL-4" value="判斷已有該用戶/姓名" style="rhombus;whiteSpace=wrap;html=1;fontSize=16;rotation=0;" vertex="1" parent="1">
          <mxGeometry x="5.25" y="333" width="153.5" height="63" as="geometry" />
        </mxCell>
        <mxCell id="wkYyvQzpivgb2VtziBDL-11" value="" style="edgeStyle=none;curved=1;rounded=0;orthogonalLoop=1;jettySize=auto;html=1;fontSize=12;startSize=8;endSize=8;" edge="1" parent="1" source="wkYyvQzpivgb2VtziBDL-5" target="wkYyvQzpivgb2VtziBDL-7">
          <mxGeometry relative="1" as="geometry" />
        </mxCell>
        <mxCell id="wkYyvQzpivgb2VtziBDL-5" value="添加用戶名稱、真實姓名、密碼、確認密碼、用戶類型" style="rounded=0;whiteSpace=wrap;html=1;fontSize=16;" vertex="1" parent="1">
          <mxGeometry x="6.25" y="435" width="152.5" height="63" as="geometry" />
        </mxCell>
        <mxCell id="wkYyvQzpivgb2VtziBDL-6" value="查詢用戶表" style="shape=parallelogram;perimeter=parallelogramPerimeter;whiteSpace=wrap;html=1;fixedSize=1;fontSize=16;rotation=0;" vertex="1" parent="1">
          <mxGeometry x="5.25" y="542" width="152.5" height="63" as="geometry" />
        </mxCell>
        <mxCell id="wkYyvQzpivgb2VtziBDL-12" value="" style="edgeStyle=none;curved=1;rounded=0;orthogonalLoop=1;jettySize=auto;html=1;fontSize=12;startSize=8;endSize=8;" edge="1" parent="1" source="wkYyvQzpivgb2VtziBDL-7" target="wkYyvQzpivgb2VtziBDL-9">
          <mxGeometry relative="1" as="geometry" />
        </mxCell>
        <mxCell id="wkYyvQzpivgb2VtziBDL-7" value="驗證輸入信息是否正確" style="rhombus;whiteSpace=wrap;html=1;fontSize=16;rotation=0;" vertex="1" parent="1">
          <mxGeometry x="4.25" y="649" width="153.5" height="63" as="geometry" />
        </mxCell>
        <mxCell id="wkYyvQzpivgb2VtziBDL-8" value="刷新用戶列表" style="rounded=0;whiteSpace=wrap;html=1;fontSize=16;" vertex="1" parent="1">
          <mxGeometry x="13" y="759" width="152.5" height="63" as="geometry" />
        </mxCell>
        <mxCell id="wkYyvQzpivgb2VtziBDL-9" value="結束" style="rounded=1;whiteSpace=wrap;html=1;fontSize=16;" vertex="1" parent="1">
          <mxGeometry x="25" y="863" width="115" height="36" as="geometry" />
        </mxCell>
        <mxCell id="wkYyvQzpivgb2VtziBDL-14" value="" style="html=1;verticalAlign=bottom;endArrow=block;curved=0;rounded=0;fontSize=12;startSize=8;endSize=8;exitX=0.5;exitY=1;exitDx=0;exitDy=0;entryX=0.5;entryY=0;entryDx=0;entryDy=0;" edge="1" parent="1" source="wkYyvQzpivgb2VtziBDL-3" target="wkYyvQzpivgb2VtziBDL-4">
          <mxGeometry x="-0.3913" y="13" width="80" relative="1" as="geometry">
            <mxPoint x="160" y="589" as="sourcePoint" />
            <mxPoint x="240" y="589" as="targetPoint" />
            <mxPoint as="offset" />
          </mxGeometry>
        </mxCell>
        <mxCell id="wkYyvQzpivgb2VtziBDL-16" value="" style="html=1;verticalAlign=bottom;endArrow=block;curved=0;rounded=0;fontSize=12;startSize=8;endSize=8;exitX=0.5;exitY=1;exitDx=0;exitDy=0;entryX=0.5;entryY=0;entryDx=0;entryDy=0;" edge="1" parent="1" source="wkYyvQzpivgb2VtziBDL-5" target="wkYyvQzpivgb2VtziBDL-6">
          <mxGeometry width="80" relative="1" as="geometry">
            <mxPoint x="160" y="389" as="sourcePoint" />
            <mxPoint x="240" y="389" as="targetPoint" />
          </mxGeometry>
        </mxCell>
        <mxCell id="wkYyvQzpivgb2VtziBDL-17" value="" style="html=1;verticalAlign=bottom;endArrow=block;curved=0;rounded=0;fontSize=12;startSize=8;endSize=8;exitX=0.5;exitY=1;exitDx=0;exitDy=0;entryX=0.5;entryY=0;entryDx=0;entryDy=0;" edge="1" parent="1" source="wkYyvQzpivgb2VtziBDL-1" target="wkYyvQzpivgb2VtziBDL-2">
          <mxGeometry width="80" relative="1" as="geometry">
            <mxPoint x="160" y="189" as="sourcePoint" />
            <mxPoint x="240" y="189" as="targetPoint" />
          </mxGeometry>
        </mxCell>
        <mxCell id="wkYyvQzpivgb2VtziBDL-19" value="" style="html=1;verticalAlign=bottom;endArrow=block;curved=0;rounded=0;fontSize=12;startSize=8;endSize=8;exitX=0.5;exitY=1;exitDx=0;exitDy=0;entryX=0.452;entryY=0.042;entryDx=0;entryDy=0;entryPerimeter=0;" edge="1" parent="1" source="wkYyvQzpivgb2VtziBDL-7" target="wkYyvQzpivgb2VtziBDL-8">
          <mxGeometry x="0.007" width="80" relative="1" as="geometry">
            <mxPoint x="160" y="689" as="sourcePoint" />
            <mxPoint x="240" y="689" as="targetPoint" />
            <mxPoint as="offset" />
          </mxGeometry>
        </mxCell>
        <mxCell id="wkYyvQzpivgb2VtziBDL-28" value="" style="endArrow=none;html=1;rounded=0;fontSize=12;startSize=8;endSize=8;curved=1;" edge="1" parent="1">
          <mxGeometry width="50" height="50" relative="1" as="geometry">
            <mxPoint x="85" y="83" as="sourcePoint" />
            <mxPoint x="277" y="83" as="targetPoint" />
          </mxGeometry>
        </mxCell>
        <mxCell id="wkYyvQzpivgb2VtziBDL-29" value="" style="endArrow=none;html=1;rounded=0;fontSize=12;startSize=8;endSize=8;curved=1;" edge="1" parent="1">
          <mxGeometry width="50" height="50" relative="1" as="geometry">
            <mxPoint x="277" y="360" as="sourcePoint" />
            <mxPoint x="277" y="81" as="targetPoint" />
          </mxGeometry>
        </mxCell>
        <mxCell id="wkYyvQzpivgb2VtziBDL-30" value="" style="endArrow=none;html=1;rounded=0;fontSize=12;startSize=8;endSize=8;curved=1;exitX=1;exitY=0.5;exitDx=0;exitDy=0;" edge="1" parent="1" source="wkYyvQzpivgb2VtziBDL-4">
          <mxGeometry width="50" height="50" relative="1" as="geometry">
            <mxPoint x="188" y="214" as="sourcePoint" />
            <mxPoint x="279" y="361" as="targetPoint" />
          </mxGeometry>
        </mxCell>
        <mxCell id="wkYyvQzpivgb2VtziBDL-31" value="已存在" style="text;strokeColor=none;fillColor=none;html=1;align=center;verticalAlign=middle;whiteSpace=wrap;rounded=0;fontSize=16;" vertex="1" parent="1">
          <mxGeometry x="246" y="181" width="60" height="30" as="geometry" />
        </mxCell>
        <mxCell id="wkYyvQzpivgb2VtziBDL-32" value="不存在" style="text;strokeColor=none;fillColor=none;html=1;align=center;verticalAlign=middle;whiteSpace=wrap;rounded=0;fontSize=16;" vertex="1" parent="1">
          <mxGeometry x="65" y="403" width="53" height="21" as="geometry" />
        </mxCell>
        <mxCell id="wkYyvQzpivgb2VtziBDL-33" value="" style="endArrow=none;html=1;rounded=0;fontSize=12;startSize=8;endSize=8;curved=1;exitX=0.25;exitY=1;exitDx=0;exitDy=0;" edge="1" parent="1" source="wkYyvQzpivgb2VtziBDL-32">
          <mxGeometry width="50" height="50" relative="1" as="geometry">
            <mxPoint x="188" y="514" as="sourcePoint" />
            <mxPoint x="274" y="424" as="targetPoint" />
          </mxGeometry>
        </mxCell>
        <mxCell id="wkYyvQzpivgb2VtziBDL-34" value="" style="endArrow=none;html=1;rounded=0;fontSize=12;startSize=8;endSize=8;curved=1;" edge="1" parent="1" source="wkYyvQzpivgb2VtziBDL-36">
          <mxGeometry width="50" height="50" relative="1" as="geometry">
            <mxPoint x="272" y="677" as="sourcePoint" />
            <mxPoint x="272" y="425" as="targetPoint" />
          </mxGeometry>
        </mxCell>
        <mxCell id="wkYyvQzpivgb2VtziBDL-35" value="" style="endArrow=none;html=1;rounded=0;fontSize=12;startSize=8;endSize=8;curved=1;exitX=1;exitY=0.5;exitDx=0;exitDy=0;" edge="1" parent="1" source="wkYyvQzpivgb2VtziBDL-7">
          <mxGeometry width="50" height="50" relative="1" as="geometry">
            <mxPoint x="188" y="514" as="sourcePoint" />
            <mxPoint x="273" y="676" as="targetPoint" />
          </mxGeometry>
        </mxCell>
        <mxCell id="wkYyvQzpivgb2VtziBDL-37" value="" style="endArrow=none;html=1;rounded=0;fontSize=12;startSize=8;endSize=8;curved=1;" edge="1" parent="1" target="wkYyvQzpivgb2VtziBDL-36">
          <mxGeometry width="50" height="50" relative="1" as="geometry">
            <mxPoint x="272" y="677" as="sourcePoint" />
            <mxPoint x="272" y="425" as="targetPoint" />
          </mxGeometry>
        </mxCell>
        <mxCell id="wkYyvQzpivgb2VtziBDL-36" value="正確" style="text;strokeColor=none;fillColor=none;html=1;align=center;verticalAlign=middle;whiteSpace=wrap;rounded=0;fontSize=16;" vertex="1" parent="1">
          <mxGeometry x="250" y="542" width="40" height="23" as="geometry" />
        </mxCell>
        <mxCell id="wkYyvQzpivgb2VtziBDL-38" value="不正確" style="text;strokeColor=none;fillColor=none;html=1;align=center;verticalAlign=middle;whiteSpace=wrap;rounded=0;fontSize=16;" vertex="1" parent="1">
          <mxGeometry x="57.5" y="722" width="68" height="26" as="geometry" />
        </mxCell>
      </root>
    </mxGraphModel>
  </diagram>
</mxfile>
